<mxfile host="app.diagrams.net" modified="2023-01-30T22:09:46.592Z" agent="5.0 (Windows NT 10.0; Win64; x64) AppleWebKit/537.36 (KHTML, like Gecko) Chrome/109.0.0.0 Safari/537.36" etag="VcXNecVSPNzgAbCMJbMi" version="20.8.13" type="github">
  <diagram name="Page-1" id="eZxrNIxiw2brk8VC-5Xe">
    <mxGraphModel dx="794" dy="1538" grid="1" gridSize="10" guides="1" tooltips="1" connect="1" arrows="1" fold="1" page="1" pageScale="1" pageWidth="850" pageHeight="1100" math="0" shadow="0">
      <root>
        <mxCell id="0" />
        <mxCell id="1" parent="0" />
        <mxCell id="Te0NBWDXG6CIXy7gjwHT-15" value="" style="rounded=0;whiteSpace=wrap;html=1;fillColor=#eeeeee;strokeColor=#36393d;" vertex="1" parent="1">
          <mxGeometry x="80" y="100" width="650" height="310" as="geometry" />
        </mxCell>
        <mxCell id="Te0NBWDXG6CIXy7gjwHT-16" value="AWS" style="text;html=1;strokeColor=none;fillColor=none;align=center;verticalAlign=middle;whiteSpace=wrap;rounded=0;" vertex="1" parent="1">
          <mxGeometry x="80" y="80" width="60" height="30" as="geometry" />
        </mxCell>
        <mxCell id="Te0NBWDXG6CIXy7gjwHT-18" value="VPC" style="points=[[0,0],[0.25,0],[0.5,0],[0.75,0],[1,0],[1,0.25],[1,0.5],[1,0.75],[1,1],[0.75,1],[0.5,1],[0.25,1],[0,1],[0,0.75],[0,0.5],[0,0.25]];outlineConnect=0;html=1;whiteSpace=wrap;fontSize=12;fontStyle=0;container=1;pointerEvents=0;collapsible=0;recursiveResize=0;shape=mxgraph.aws4.group;grIcon=mxgraph.aws4.group_vpc;strokeColor=#82b366;fillColor=#d5e8d4;verticalAlign=top;align=left;spacingLeft=30;dashed=0;" vertex="1" parent="1">
          <mxGeometry x="130" y="140" width="550" height="230" as="geometry" />
        </mxCell>
        <mxCell id="Te0NBWDXG6CIXy7gjwHT-21" value="Public subnet" style="points=[[0,0],[0.25,0],[0.5,0],[0.75,0],[1,0],[1,0.25],[1,0.5],[1,0.75],[1,1],[0.75,1],[0.5,1],[0.25,1],[0,1],[0,0.75],[0,0.5],[0,0.25]];outlineConnect=0;gradientColor=none;html=1;whiteSpace=wrap;fontSize=12;fontStyle=0;container=1;pointerEvents=0;collapsible=0;recursiveResize=0;shape=mxgraph.aws4.group;grIcon=mxgraph.aws4.group_security_group;grStroke=0;strokeColor=#248814;fillColor=#E9F3E6;verticalAlign=top;align=left;spacingLeft=30;fontColor=#248814;dashed=0;" vertex="1" parent="1">
          <mxGeometry x="270" y="190" width="260" height="150" as="geometry" />
        </mxCell>
        <mxCell id="Te0NBWDXG6CIXy7gjwHT-23" value="" style="outlineConnect=0;dashed=0;verticalLabelPosition=bottom;verticalAlign=top;align=center;html=1;shape=mxgraph.aws3.ec2;fillColor=#F58534;gradientColor=none;" vertex="1" parent="1">
          <mxGeometry x="366.75" y="220" width="76.5" height="93" as="geometry" />
        </mxCell>
        <mxCell id="Te0NBWDXG6CIXy7gjwHT-24" value="Jenkins Ec2" style="text;html=1;strokeColor=none;fillColor=none;align=center;verticalAlign=middle;whiteSpace=wrap;rounded=0;fontStyle=1" vertex="1" parent="1">
          <mxGeometry x="380" y="310" width="100" height="30" as="geometry" />
        </mxCell>
        <mxCell id="Te0NBWDXG6CIXy7gjwHT-26" value="" style="outlineConnect=0;dashed=0;verticalLabelPosition=bottom;verticalAlign=top;align=center;html=1;shape=mxgraph.aws3.internet_3;fillColor=#D2D3D3;gradientColor=none;" vertex="1" parent="1">
          <mxGeometry x="250" y="-20" width="79.5" height="54" as="geometry" />
        </mxCell>
        <mxCell id="Te0NBWDXG6CIXy7gjwHT-27" value="Internet accessible via port 8080" style="text;html=1;strokeColor=none;fillColor=none;align=center;verticalAlign=middle;whiteSpace=wrap;rounded=0;" vertex="1" parent="1">
          <mxGeometry x="130" y="-26" width="120" height="60" as="geometry" />
        </mxCell>
        <mxCell id="Te0NBWDXG6CIXy7gjwHT-28" value="" style="shape=document;whiteSpace=wrap;html=1;boundedLbl=1;fillColor=#cce5ff;strokeColor=#36393d;" vertex="1" parent="1">
          <mxGeometry x="560" y="-16" width="100" height="50" as="geometry" />
        </mxCell>
        <mxCell id="Te0NBWDXG6CIXy7gjwHT-29" value="SSH Client" style="text;html=1;strokeColor=none;fillColor=none;align=center;verticalAlign=middle;whiteSpace=wrap;rounded=0;" vertex="1" parent="1">
          <mxGeometry x="580" y="-16" width="60" height="36" as="geometry" />
        </mxCell>
        <mxCell id="Te0NBWDXG6CIXy7gjwHT-30" value="" style="endArrow=classic;html=1;rounded=0;" edge="1" parent="1" target="Te0NBWDXG6CIXy7gjwHT-23">
          <mxGeometry width="50" height="50" relative="1" as="geometry">
            <mxPoint x="310" y="40" as="sourcePoint" />
            <mxPoint x="430" y="160" as="targetPoint" />
          </mxGeometry>
        </mxCell>
        <mxCell id="Te0NBWDXG6CIXy7gjwHT-31" value="" style="endArrow=classic;html=1;rounded=0;" edge="1" parent="1" source="Te0NBWDXG6CIXy7gjwHT-28" target="Te0NBWDXG6CIXy7gjwHT-23">
          <mxGeometry width="50" height="50" relative="1" as="geometry">
            <mxPoint x="380" y="210" as="sourcePoint" />
            <mxPoint x="430" y="160" as="targetPoint" />
          </mxGeometry>
        </mxCell>
        <mxCell id="Te0NBWDXG6CIXy7gjwHT-32" value="Port 22" style="text;html=1;strokeColor=none;fillColor=none;align=center;verticalAlign=middle;whiteSpace=wrap;rounded=0;" vertex="1" parent="1">
          <mxGeometry x="570" y="60" width="60" height="30" as="geometry" />
        </mxCell>
        <mxCell id="Te0NBWDXG6CIXy7gjwHT-35" value="" style="points=[[0.25,0,0],[0.5,0,0],[0.75,0,0],[1,0.25,0],[1,0.5,0],[1,0.75,0],[0.75,1,0],[0.5,1,0],[0.25,1,0],[0,0.75,0],[0,0.5,0],[0,0.25,0]];shape=mxgraph.bpmn.task;whiteSpace=wrap;rectStyle=rounded;size=10;html=1;taskMarker=script;" vertex="1" parent="1">
          <mxGeometry x="450" y="250" width="60" height="50" as="geometry" />
        </mxCell>
        <mxCell id="Te0NBWDXG6CIXy7gjwHT-36" value="via UDS" style="text;html=1;strokeColor=none;fillColor=none;align=center;verticalAlign=middle;whiteSpace=wrap;rounded=0;" vertex="1" parent="1">
          <mxGeometry x="450" y="270" width="60" height="30" as="geometry" />
        </mxCell>
      </root>
    </mxGraphModel>
  </diagram>
</mxfile>
